<?xml version="1.0" encoding="utf-8"?>
<!-- Generator: Adobe Illustrator 16.0.0, SVG Export Plug-In . SVG Version: 6.00 Build 0)  -->
<!DOCTYPE svg PUBLIC "-//W3C//DTD SVG 1.1//EN" "http://www.w3.org/Graphics/SVG/1.1/DTD/svg11.dtd">
<svg version="1.1" id="Layer_1" xmlns="http://www.w3.org/2000/svg" xmlns:xlink="http://www.w3.org/1999/xlink" x="0px" y="0px"
	 width="324px" height="53px" viewBox="7 72.5 324 53" enable-background="new 7 72.5 324 53" xml:space="preserve">
<g>
	<path fill="#FFFFFF" d="M62.173,78.306l-0.177,0.769l-0.178,0.532l-0.354,0.947l-0.829,1.598L60.22,83.04l-1.065,3.313
		l-0.414,0.887l-1.539,3.136l-0.414,0.888l-1.065,3.254l-0.355,0.946l-1.243,3.195l-0.355,0.947l-1.301,3.195l-0.415,0.889
		l-1.598,3.135l-0.414,0.888l-1.302,3.195l-0.355,0.946l-1.42,3.076l-0.355,0.947l-1.36,3.195l-0.237,0.65l-0.355,0.236l-0.71,0.059
		l-4.319-0.059l-0.946,0.059l-3.313,0.297l-1.006,0.061l-0.769-0.119l-0.414-0.414l-0.355-0.71l-1.302-3.138l-0.354-0.887
		l-1.539-3.254l-0.355-0.89l-1.301-3.135l-0.355-0.946l-1.065-3.254l-0.354-0.945l-1.42-3.137l-0.355-0.888l-1.538-3.254
		l-0.355-0.887l-1.183-3.195l-0.415-0.947l-1.42-3.077l-0.355-0.946l-1.065-3.313l-0.355-0.888l-1.065-1.716l-0.355-0.888
		l-0.177-0.532l-0.118-0.769l0.177-0.533l0.415-0.355l0.65-0.177l0.355-0.059h0.887L21.17,77.3l2.84-0.059l3.787,0.236l0.769,0.059
		l0.474,0.119l0.355,0.473l0.236,0.592l0.237,0.828l0.592,1.953l0.296,0.946l1.42,3.077l0.354,0.947l1.184,3.136l0.355,0.946
		l1.183,3.728l0.355,0.947l1.301,3.668l1.479,4.733l0.296,0.65l0.414,0.238l0.533-0.238l0.355-0.65l1.42-3.668l0.295-0.947
		l0.947-3.846l0.296-0.947l1.657-3.55l0.296-0.947l1.006-3.254l0.295-0.888l1.479-3.136l0.296-0.887l0.591-2.189l0.355-1.006
		l0.473-0.769l0.415-0.237l0.71-0.118h0.414l0.947-0.059l1.479,0.118h3.787l2.722-0.177l1.065,0.118l0.71,0.177l0.355,0.355
		L62.173,78.306z"/>
	<path fill="#FFFFFF" d="M99.271,114.456l-0.059,0.946l-0.236,3.197l-0.06,0.592l-0.237,0.414l-0.296,0.235l-7.75,0.236h-0.947
		l-3.135-0.236l-0.947,0.06l-3.077,0.236l-0.946,0.061h-4.083l-3.077-0.237h-0.947l-5.088,0.296l-2.012-0.117l-0.71-0.119
		l-0.414-0.295l-0.177-0.414l-0.118-0.65l-0.118-1.362l-0.06-0.946l0.06-0.889v-0.888l0.236-3.136v-0.946l0.059-3.136l-0.059-0.946
		l-0.177-3.136l-0.059-0.947l0.118-3.195v-5.029l0.236-3.136l-0.059-0.947l-0.177-3.135l-0.059-0.947v-1.42l0.118-1.775v-0.888
		l0.177-3.077l0.059-0.828l0.178-0.474l0.296-0.236l0.473-0.059l0.77-0.119l3.846,0.237l3.609-0.059h0.947l3.55,0.236h0.946
		l3.55-0.236h0.947l8.046,0.118l1.006-0.059l2.012-0.177h1.479l0.828,0.177l0.355,0.296l0.118,0.414l0.118,0.769v1.598l-0.118,1.479
		v1.006l0.059,1.479l0.059,0.888l-0.059,0.887l-0.118,0.71L97.91,87.24l-0.296,0.237l-0.71,0.118h-0.473l-0.947,0.059l-5.562-0.118
		h-0.947l-3.017,0.118h-0.947l-3.077-0.118l-2.663-0.178h-0.887l-0.474,0.06l-0.591,0.118l-0.296,0.295l-0.059,0.355l-0.118,0.651
		l-0.118,1.42v0.947l0.059,1.005l0.059,0.651l0.118,0.414l0.237,0.296l0.651,0.177l1.893,0.119l1.894-0.119h5.621l6.626-0.354
		l1.834,0.118l0.651,0.118l0.354,0.296l0.178,0.355l0.059,0.651l0.119,1.006l0.059,1.006v1.953l0.118,1.36l-0.118,1.775l-0.118,0.71
		l-0.237,0.413l-0.414,0.297l-0.592,0.117h-1.184l-2.662-0.295l-0.947-0.06l-4.733,0.296l-3.787-0.119h-0.947l-2.366-0.177
		l-1.006,0.06l-0.71,0.059l-0.296,0.178l-0.178,0.414l-0.059,0.889l-0.177,1.479l-0.06,0.947v1.302l0.06,0.592l0.177,0.413
		l0.237,0.237l0.651,0.06l3.254,0.117h0.947l3.195-0.236l4.201,0.236h0.947l4.2-0.236h0.888l0.888,0.061l2.13,0.236l0.354,0.178
		l0.237,0.354l0.059,0.651L99.271,114.456z"/>
	<path fill="#FFFFFF" d="M143.527,95.76l0.059,1.006l-0.237,3.846v5.562l-0.118,2.485v3.489l-0.059,0.65l-0.355,0.594l-0.473,0.769
		l-0.533,0.771l-1.005,1.006l-0.71,0.649l-0.354,0.354l-0.77,0.533l-0.414,0.237l-0.769,0.474l-1.183,0.592l-0.888,0.354
		l-0.828,0.296l-1.361,0.414l-0.888,0.236l-0.946,0.178l-0.888,0.178l-1.361,0.178l-0.829,0.119l-0.888,0.178l-2.366,0.295
		l-0.888,0.061l-1.834-0.119l-1.361-0.119l-0.946-0.116l-0.947-0.179l-0.888-0.235l-2.07-0.593l-0.888-0.235l-0.888-0.296
		l-1.184-0.415l-0.769-0.414l-1.184-0.649l-0.71-0.533l-0.769-0.533l-0.71-0.592l-0.71-0.532l-0.65-0.593l-0.947-0.946l-0.592-0.709
		l-0.651-0.89l-0.532-0.828l-1.479-2.661l-0.414-0.947l-0.414-0.887l-0.296-0.947l-0.295-1.005l-0.178-0.947l-0.177-1.006
		l-0.118-0.947l-0.237-1.301l-0.118-0.947l-0.059-0.888v-0.887l0.177-2.663l0.118-0.473l0.178-1.006l0.236-1.006l0.296-0.946
		l0.295-1.006l0.296-0.947l0.296-0.888l0.414-0.946l0.415-1.006l0.414-0.829l0.769-1.065l0.532-0.71l0.651-0.769l0.651-0.71
		l0.709-0.65l1.539-1.302l0.769-0.592l0.71-0.532l0.71-0.473l1.952-1.125l0.888-0.532l1.006-0.415l1.006-0.296l0.946-0.236
		l2.189-0.355l1.716-0.236l0.887-0.178l0.888-0.118l1.36-0.118l0.947-0.059l1.302,0.118l0.887,0.059l1.361,0.178l0.828,0.177
		l1.302,0.237l0.887,0.237l1.302,0.414l0.887,0.295l2.13,1.065l0.888,0.532l0.769,0.533l0.296,0.177l0.65,0.414l0.651,0.474
		l0.296,0.296l0.651,0.473l0.355,0.296l0.355,0.414v0.414l-0.177,0.414l-0.355,0.533l-0.532,0.77l-0.592,0.65l-1.657,1.657
		l-1.065,0.947l-0.71,0.592l-0.65,0.473l-0.474,0.355l-0.355,0.237l-0.474,0.059l-0.65-0.415l-0.769-0.532l-0.77-0.474l-0.828-0.473
		l-0.947-0.414l-0.947-0.355l-1.006-0.237l-1.005-0.177l-2.781-0.177h-0.414l-0.947,0.059l-1.539,0.118l-0.947,0.237l-1.775,0.828
		l-0.769,0.532l-0.77,0.592l-0.65,0.651l-0.592,0.77l-0.532,0.769l-0.474,0.829l-0.355,0.887l-0.296,0.947l-0.237,0.888
		l-0.354,1.775l-0.178,0.947l-0.06,1.006v1.005l0.119,1.42l0.178,0.947l0.295,1.36l0.296,0.947l0.592,1.42l0.414,0.827l0.71,1.065
		l0.592,0.709l1.065,1.005l0.77,0.592l1.183,0.652l0.887,0.354l1.775,0.413l1.006,0.119l1.005,0.06h0.947l0.947-0.117l0.888-0.178
		l3.194-0.771l0.947-0.354l0.888-0.414l0.592-0.414l0.177-0.354v-0.651l0.059-0.531v-0.887l-0.118-1.775v-1.006l-0.236-0.354
		l-0.651-0.118h-1.419l-0.947,0.059l-1.361,0.179l-0.947,0.06h-1.361l-0.946-0.06l-2.012-0.354l-0.355-0.119l-0.236-0.295
		l-0.118-0.71l-0.06-0.473l-0.059-0.947l0.059-1.479l-0.118-1.775l-0.118-0.888v-1.242l0.177-0.651l0.296-0.296l0.71-0.118
		l1.479-0.178l1.006-0.059h2.722l3.846-0.178l4.733,0.296h0.946l2.426-0.296l0.947-0.059l0.473,0.059l0.887,0.178l0.415,0.237
		l0.118,0.355l0.177,0.828L143.527,95.76z"/>
	<path fill="#FFFFFF" d="M193.938,98.186l-0.06,0.947l-0.118,1.361l-0.117,0.887l-0.354,1.775l-0.119,1.361l-0.119,0.887
		l-0.177,0.947l-0.236,0.887l-0.593,1.242l-0.413,0.828l-1.598,2.662l-0.532,0.771l-0.592,0.77l-0.593,0.65l-0.946,1.006
		l-0.649,0.592l-0.77,0.593l-0.711,0.532l-1.064,0.712l-0.769,0.473l-0.888,0.474l-0.83,0.354l-1.183,0.475l-0.888,0.236
		l-1.894,0.592l-1.005,0.296l-0.947,0.235l-1.006,0.236l-1.006,0.178l-1.006,0.06h-3.195l-2.011-0.118l-1.953-0.236l-0.828-0.177
		l-0.888-0.237l-3.195-1.063l-0.947-0.297l-1.006-0.413l-1.893-0.829l-0.888-0.474l-0.887-0.533l-0.77-0.592l-0.769-0.651
		l-0.71-0.769l-0.651-0.77l-1.598-1.598l-0.592-0.711l-0.591-0.771l-0.474-0.768l-0.473-1.185l-0.887-2.662l-0.355-1.244
		l-0.178-0.887l-0.178-0.947l-0.177-0.887l-0.177-1.301l-0.059-0.888l-0.059-1.006v-1.006l0.059-1.005l0.059-1.065l0.118-1.006
		l0.177-1.006l0.237-1.006l0.296-1.006l0.296-0.887l0.355-0.947l0.414-1.361l0.414-0.946l0.237-0.532l0.473-0.888l0.829-1.302
		l0.591-0.829l0.296-0.473l0.709-0.71l1.006-0.829l0.769-0.591l0.77-0.533l1.775-1.183l0.769-0.474l0.829-0.473l0.828-0.414
		l1.243-0.532l0.828-0.296l0.888-0.295l0.887-0.237l2.249-0.414l0.887-0.178l2.958-0.355l1.893-0.118l1.775,0.118l1.42,0.059
		l1.006,0.119l1.006,0.177l1.006,0.237l1.005,0.178l0.947,0.236l0.888,0.237l0.887,0.296l1.242,0.473l0.829,0.355l1.952,1.125
		l0.771,0.532l0.77,0.592l1.006,0.947l0.65,0.591l0.65,0.651l0.533,0.71l0.827,1.124l0.474,0.77l0.414,0.769l0.475,0.769l0.65,1.184
		l0.474,0.769l0.414,0.888l0.296,0.828l0.296,1.361l0.354,1.775l0.119,1.006l0.176,1.006L193.938,98.186z M181.512,99.191v-1.006
		l-0.06-1.005l-0.059-0.947l-0.355-1.775l-0.237-0.829l-0.651-1.301l-0.473-0.77l-0.829-1.065l-0.592-0.651l-0.887-0.947
		l-0.65-0.532l-1.539-0.887l-0.829-0.355l-0.947-0.295l-0.946-0.178l-1.894-0.118l-0.887,0.059l-1.302,0.059l-0.887,0.178
		l-1.539,0.414l-0.947,0.355l-1.361,0.71l-0.828,0.532l-0.947,0.829l-0.651,0.71l-0.65,0.888l-0.474,0.769l-0.177,0.355
		l-0.533,1.242l-0.296,0.888l-0.177,0.414l-0.178,0.828l-0.118,0.829l-0.059,0.828l-0.06,0.888v0.887l0.06,0.947l0.177,0.947
		l0.059,0.533l0.237,0.887l0.118,0.415l0.296,0.829l0.237,0.473l0.473,0.828l0.296,0.475l0.651,0.828l0.355,0.414l0.71,0.709
		l1.184,1.006l0.828,0.531l0.947,0.475l0.888,0.354l1.243,0.414l0.888,0.179l1.479,0.176l1.006,0.061l1.479-0.119l0.947-0.117
		l1.301-0.297l0.829-0.354l1.301-0.829l0.71-0.531l0.947-0.946l0.592-0.651l0.77-0.946l0.532-0.828l0.592-1.302l0.354-0.888
		l0.296-1.361l0.118-0.888L181.512,99.191z"/>
	<path fill="#FFFFFF" d="M228.727,81.975l-0.059,0.887l0.059,1.775l-0.059,0.947l-0.061,0.473l-0.117,0.71l-0.178,0.414
		l-0.354,0.296l-0.71,0.118h-0.947l-1.775-0.177l-0.945-0.06l-2.721,0.178h-0.947l-1.479-0.118h-0.889l-0.414,0.059l-0.592,0.177
		l-0.236,0.355l-0.06,0.769l-0.237,3.491v0.946l0.237,3.55l-0.06,0.947l-0.238,3.55l-0.059,0.947l0.118,3.491v5.442l-0.118,3.491
		l0.059,0.888l0.298,2.664l0.06,0.946l-0.178,0.71l-0.297,0.297l-0.77,0.117l-1.123-0.059l-1.479-0.18l-1.006-0.059l-2.662,0.178
		h-0.946l-2.662-0.178l-0.711-0.059l-0.354-0.178l-0.119-0.652v-1.004l0.179-2.487l0.06-0.946v-4.438l0.06-3.551V105.7l0.06-3.491
		v-0.947l-0.236-3.55l-0.061-0.947V92.27l-0.117-3.491V87.95l-0.178-0.473l-0.592-0.119h-0.888l-1.894,0.119h-1.065l-1.597-0.119
		l-1.006-0.06l-1.007,0.06l-1.36,0.06h-0.888l-0.475-0.06l-0.65-0.119l-0.354-0.236l-0.236-0.355l-0.118-0.592v-0.414l-0.059-0.946
		l0.118-1.775v-0.887l-0.178-2.249l0.06-0.946l0.177-0.77l0.236-0.414l0.354-0.178l0.593-0.118h1.359l2.189,0.177h0.945l3.432-0.236
		h0.947l3.491,0.296h0.945l4.379-0.296l3.433,0.059h0.946l4.438-0.059h4.377l1.953-0.118l1.006,0.059l0.474,0.059l0.71,0.118
		l0.414,0.237l0.296,0.414l0.118,0.71v0.414l0.059,0.888L228.727,81.975z"/>
	<path fill="#FFFFFF" d="M244.584,110.609v0.947l-0.236,3.194v0.947l-0.06,3.255v0.65l-0.179,0.297l-0.473,0.177l-0.828,0.06
		l-3.019-0.06h-3.668l-2.958-0.236l-0.354-0.118l-0.179-0.178v-0.592l-0.118-1.48v-0.945l-0.06-0.889v-0.888l-0.179-3.194
		l0.06-0.947l0.179-3.194l0.06-0.946l-0.179-3.254v-0.947l-0.06-3.195v-5.088l-0.06-3.254v-0.947l0.06-3.195v-5.088l-0.118-3.254
		l0.178-0.651l0.355-0.237l0.591-0.059h0.476l0.888-0.059l1.419,0.059h0.947l2.721-0.118h3.669l0.649,0.118l0.119,0.355l0.06,0.651
		l0.118,1.539l0.06,0.946v5.798l0.06,3.195v0.947l-0.06,3.254v0.946l0.06,3.195v0.947l-0.118,3.195v5.147L244.584,110.609z"/>
	<path fill="#FFFFFF" d="M288.365,92.506l0.06,0.888l-0.06,0.887l-0.059,1.006l-0.297,1.479l-0.177,0.947l-0.476,1.184l-0.354,0.828
		l-0.592,1.124l-0.532,0.77l-0.828,1.124l-0.649,0.71l-0.771,0.71l-0.771,0.651l-0.77,0.533l-0.826,0.531l-1.304,0.592l-0.887,0.414
		l-1.007,0.414l-0.887,0.297l-1.303,0.354l-0.888,0.177l-0.888,0.119l-0.946,0.06l-1.538,0.118h-4.971l-1.006-0.06l-1.007,0.06
		l-1.006,0.118l-0.709,0.118l-0.178,0.413l-0.06,0.771l-0.236,3.964v0.946l0.059,1.774l-0.059,0.889l-0.061,1.303l-0.117,0.651
		l-0.179,0.354l-0.295,0.117l-0.651,0.118l-1.894,0.118l-2.308-0.118h-0.946l-1.894,0.118l-0.947-0.061l-1.36-0.059l-0.769-0.236
		l-0.355-0.354l-0.118-0.71l-0.118-0.89l-0.06-0.947v-6.33l0.235-3.137v-0.945l-0.235-3.137v-0.946l-0.118-7.218v-0.947l0.236-3.195
		V90.02l-0.178-3.135v-0.947l0.236-3.136v-0.888l-0.117-1.775l0.059-0.887l0.06-0.474l0.118-0.651l0.18-0.355l0.295-0.296
		l0.649-0.059l1.716-0.118l1.361,0.059h0.888l3.964-0.059h3.965l3.963,0.236h3.906l2.248-0.118l0.828,0.059h0.473L276,77.655
		l1.361,0.355l0.945,0.296l0.947,0.354l0.889,0.415l0.887,0.532l0.769,0.592l1.065,0.947l0.71,0.592l0.296,0.355l1.064,1.065
		l0.592,0.769l0.297,0.355l0.412,0.71l0.238,0.355l0.354,0.769l0.295,0.888l0.235,0.828l0.061,0.414l0.236,0.829l0.119,0.474
		l0.235,0.828l0.354,1.656v0.473H288.365z M270.676,98.304l1.064-0.119l1.006-0.236l0.473-0.177l0.829-0.474l0.354-0.237
		l0.592-0.592l0.236-0.354l0.414-0.77l0.179-0.414l0.235-0.946l0.06-0.415v-1.479l-0.177-0.887l-0.178-0.474l-0.355-0.77
		l-0.236-0.354l-0.65-0.71l-0.474-0.295l-0.888-0.474l-1.538-0.414l-0.946-0.118h-1.361l-1.774,0.118l-2.603-0.177h-0.889
		l-0.474,0.059l-0.65,0.118l-0.235,0.177l-0.18,0.415l-0.117,0.71v1.361l0.178,2.189l0.06,0.947l0.06,3.432l0.06,0.71l0.178,0.414
		l0.65,0.237l3.075,0.236L270.676,98.304z"/>
	<path fill="#FFFFFF" d="M326.41,106.766l-0.061,1.006l-0.117,1.006l-0.178,0.945l-0.296,1.303l-0.297,0.828l-0.53,1.185
		l-0.416,0.769l-0.709,1.065l-0.593,0.709l-0.709,0.711l-0.71,0.649l-1.184,0.771l-0.771,0.532l-0.888,0.474l-0.828,0.414
		l-1.361,0.475l-1.773,0.592l-0.946,0.178l-1.479,0.236l-0.887,0.117l-1.303,0.119l-0.827,0.06l-1.362,0.059l-2.838,0.179h-1.303
		l-0.828-0.061l-1.361-0.118l-0.887-0.118l-1.006-0.177l-0.888-0.296l-1.302-0.415l-0.83-0.414l-0.887-0.414l-0.828-0.413
		l-0.77-0.475l-1.895-1.303l-0.709-0.592l-1.065-0.828l-0.709-0.592l-0.651-0.65l-0.473-0.533l-0.061-0.414l0.297-0.533l0.235-0.295
		l0.593-0.65l1.655-1.539l0.533-0.649l1.006-1.539l0.532-0.649l0.592-0.651l0.65-0.354l0.65,0.118l0.65,0.474l1.895,1.302
		l0.888,0.474l0.827,0.414l1.36,0.65l0.888,0.297l0.947,0.295l0.946,0.178l1.36,0.059l0.947,0.061l3.727-0.236l0.947-0.117
		l0.473-0.119l0.888-0.355l0.771-0.473l0.592-0.592l0.296-0.414l0.354-0.887l-0.06-1.007l-0.118-0.474l-0.474-0.828l-0.296-0.355
		l-0.771-0.592l-0.474-0.177l-0.887-0.354l-1.008-0.237l-1.006-0.179l-5.619-0.531l-1.774-0.355l-0.946-0.236l-1.303-0.473
		l-0.887-0.296l-0.889-0.414l-2.012-1.006l-0.77-0.533l-0.889-0.532l-0.77-0.533l-1.006-0.828l-0.532-0.769l-0.532-0.888
		l-0.354-0.887l-0.414-1.243l-0.178-0.888l-0.179-1.302l-0.118-1.893l0.061-0.947l0.117-1.419l0.178-0.888l0.236-0.769l0.297-0.888
		l0.592-1.302l0.414-0.828l0.474-0.71l0.591-0.651l0.946-0.888l0.771-0.591l0.77-0.533l0.828-0.414l1.123-0.651l1.775-0.71
		l0.894-0.3l1.36-0.237l0.945-0.178l1.775-0.236l1.302-0.237l0.946-0.118l0.888-0.059h0.947l1.774,0.177l0.887,0.119l0.414,0.118
		l0.947,0.118l2.012,0.355l1.006,0.236l0.947,0.296l1.006,0.296l0.945,0.355l0.889,0.414l0.887,0.355l1.124,0.65l0.829,0.415
		l0.77,0.532l0.531,0.533v0.592l-0.354,0.65l-0.651,1.184l-0.474,0.709l-2.248,2.958l-0.65,0.829l-0.709,0.592l-0.475,0.177
		l-0.414-0.059l-0.592-0.295l-0.888-0.533l-0.888-0.355l-0.414-0.177l-0.889-0.296l-0.474-0.118l-1.006-0.236l-1.36-0.296
		l-0.945-0.059l-1.538-0.119h-1.539l-1.007,0.06l-1.006,0.177l-0.945,0.296l-0.355,0.177l-0.71,0.533l-0.296,0.355l-0.413,0.828
		l-0.118,0.947l0.178,0.769l0.473,0.77l0.65,0.591l0.711,0.355l0.414,0.178l0.888,0.177l1.479,0.177l2.012,0.119l1.006,0.177
		l2.012,0.474l1.893,0.592l1.361,0.295l0.887,0.237l1.658,0.592l1.182,0.532l0.83,0.415l0.828,0.473l0.769,0.473l1.717,1.42
		l0.65,0.71l0.592,0.71l0.71,1.065l0.473,0.769l0.416,0.889l0.235,0.887l0.235,1.302l0.119,0.887L326.41,106.766z"/>
</g>
</svg>
